<svg width="198" height="24" viewBox="0 0 198 24" fill="none" xmlns="http://www.w3.org/2000/svg">
<path d="M4.94807 0.837165C5.43086 0.837165 5.86977 1.23218 5.95755 1.71497L6.04533 2.24165H24.4792C25.4009 2.24165 26.1032 3.16335 25.8398 4.04115L23.4698 12.4681C23.2942 13.0825 22.7675 13.4776 22.1092 13.4776H8.19595L8.59096 15.5843H22.1531C22.7236 15.5843 23.2064 16.0671 23.2064 16.6377C23.2064 17.2521 22.7236 17.691 22.1531 17.691H7.71316C7.23036 17.691 6.79146 17.3399 6.70368 16.8571L4.07027 2.9439H1.78797C1.17351 2.9439 0.734606 2.50499 0.734606 1.89053C0.734606 1.31996 1.17351 0.837165 1.78797 0.837165H4.94807ZM6.35256 21.2022C6.35256 20.0611 7.27425 19.0955 8.45929 19.0955C9.60044 19.0955 10.566 20.0611 10.566 21.2022C10.566 22.3873 9.60044 23.309 8.45929 23.309C7.27425 23.309 6.35256 22.3873 6.35256 21.2022ZM23.2064 21.2022C23.2064 22.3873 22.2408 23.309 21.0997 23.309C19.9146 23.309 18.993 22.3873 18.993 21.2022C18.993 20.0611 19.9146 19.0955 21.0997 19.0955C22.2408 19.0955 23.2064 20.0611 23.2064 21.2022Z" fill="#222223"/>
<g clip-path="url(#clip0_33_402)">
<path d="M30.1486 22.5V1.83001H34.0186V18.9H42.4486V22.5H30.1486ZM45.2657 22.5V1.83001H49.1357V22.5H45.2657ZM53.8205 22.5V1.83001H57.6905V10.38H57.9005L66.3305 1.83001H70.8605L61.0805 11.88L71.5805 22.5H66.6905L57.9005 13.8H57.6905V22.5H53.8205ZM73.5959 22.5V1.83001H86.5859V4.80001H77.4659V10.71H85.5959V13.53H77.4659V19.53H86.5859V22.5H73.5959ZM96.2065 22.98C95.0465 22.98 93.8165 22.83 92.5165 22.53C91.2165 22.25 90.0965 21.87 89.1565 21.39V17.82H89.4565C90.3165 18.32 91.3565 18.73 92.5765 19.05C93.8165 19.37 95.0165 19.53 96.1765 19.53C97.3965 19.53 98.4065 19.31 99.2065 18.87C100.006 18.43 100.406 17.76 100.406 16.86C100.406 16.4 100.326 16.01 100.166 15.69C100.006 15.35 99.7265 15.07 99.3265 14.85C98.9265 14.63 98.5565 14.46 98.2165 14.34C97.8765 14.22 97.3465 14.06 96.6265 13.86C95.9065 13.64 95.3365 13.46 94.9165 13.32C93.1765 12.74 91.8165 12.02 90.8365 11.16C89.8765 10.28 89.3965 9.06001 89.3965 7.50001C89.3965 5.42001 90.1465 3.88001 91.6465 2.88001C93.1465 1.88 95.1365 1.38 97.6165 1.38C99.8965 1.38 101.826 1.78 103.406 2.58001V6.15001H103.106C102.386 5.75001 101.446 5.41001 100.286 5.13001C99.1465 4.83001 98.1165 4.69001 97.1965 4.71001C94.7565 4.71001 93.5365 5.58001 93.5365 7.32001C93.5365 7.78001 93.6365 8.18001 93.8365 8.52001C94.0365 8.86001 94.3265 9.14001 94.7065 9.36001C95.1065 9.58001 95.4965 9.76001 95.8765 9.90001C96.2565 10.02 96.7165 10.16 97.2565 10.32C97.4565 10.38 97.6065 10.42 97.7065 10.44C99.9065 11 101.586 11.73 102.746 12.63C103.926 13.51 104.516 14.83 104.516 16.59C104.516 18.77 103.776 20.38 102.296 21.42C100.816 22.46 98.7865 22.98 96.2065 22.98ZM111.719 22.5V5.43001H105.689V1.83001H121.619V5.43001H115.589V22.5H111.719ZM133.33 22.95C130.13 22.95 124.98 21.92 122.88 19.86C120.78 17.8 119.73 15.21 119.73 12.09C119.73 8.99001 120.78 6.43001 122.88 4.41001C124.98 2.39001 130.13 1.38 133.33 1.38C136.53 1.38 141.67 2.39001 143.75 4.41001C145.85 6.43001 146.9 8.99001 146.9 12.09C146.9 15.21 145.85 17.8 143.75 19.86C141.65 21.92 136.51 22.95 133.33 22.95ZM133.33 19.47C135.33 19.47 139.49 18.77 140.811 17.37C142.15 15.95 142.82 14.19 142.82 12.09C142.82 10.05 142.15 8.34001 140.811 6.96001C139.49 5.56001 135.33 4.86001 133.33 4.86001C131.31 4.86001 127.131 5.56001 125.79 6.96001C124.47 8.34001 123.81 10.05 123.81 12.09C123.81 14.19 124.47 15.95 125.79 17.37C127.131 18.77 131.31 19.47 133.33 19.47ZM158.663 13.92L164.092 22.5H159.712L154.912 14.55H151.732V22.5H147.922V1.83001H155.932C158.252 1.83001 160.042 2.40001 161.302 3.54001C162.562 4.66001 163.192 6.21001 163.192 8.19001C163.192 9.61001 162.772 10.84 161.932 11.88C161.092 12.9 160.003 13.58 158.663 13.92ZM155.812 11.58C156.892 11.58 157.762 11.28 158.423 10.68C159.102 10.08 159.442 9.29001 159.442 8.31001C159.442 7.27001 159.112 6.47001 158.452 5.91001C157.792 5.35001 156.912 5.07001 155.812 5.07001H151.732V11.58H155.812ZM167.141 22.5V1.83001H180.131V4.80001H171.011V10.71H179.141V13.53H171.011V19.53H180.131V22.5H167.141Z" fill="#222223"/>
</g>
<path d="M183.867 23.75V16.1936H185.147L188.652 21.5198V16.1936H189.933V23.75H188.652L185.147 18.4238V23.75H183.867ZM191.4 23.75V16.1936H194.522C194.595 16.1936 194.69 16.1971 194.805 16.2041C194.921 16.2076 195.027 16.2181 195.125 16.2356C195.563 16.3021 195.923 16.4473 196.206 16.6711C196.493 16.895 196.705 17.1784 196.841 17.5212C196.981 17.8606 197.051 18.2384 197.051 18.6547C197.051 19.0675 196.981 19.4453 196.841 19.7882C196.701 20.1275 196.488 20.4091 196.201 20.633C195.918 20.8569 195.559 21.0021 195.125 21.0685C195.027 21.0825 194.919 21.093 194.8 21.1C194.685 21.107 194.592 21.1105 194.522 21.1105H192.664V23.75H191.4ZM192.664 19.9298H194.47C194.539 19.9298 194.618 19.9263 194.706 19.9193C194.793 19.9123 194.874 19.8983 194.947 19.8774C195.157 19.8249 195.321 19.7322 195.44 19.5992C195.563 19.4663 195.648 19.3159 195.697 19.148C195.75 18.98 195.776 18.8156 195.776 18.6547C195.776 18.4938 195.75 18.3294 195.697 18.1614C195.648 17.99 195.563 17.8378 195.44 17.7049C195.321 17.572 195.157 17.4793 194.947 17.4268C194.874 17.4058 194.793 17.3936 194.706 17.3901C194.618 17.3831 194.539 17.3796 194.47 17.3796H192.664V19.9298Z" fill="#222223"/>
<defs>
<clipPath id="clip0_33_402">
<rect width="151.25" height="22.5" fill="white" transform="translate(29 1.25)"/>
</clipPath>
</defs>
</svg>
