<svg xmlns="http://www.w3.org/2000/svg" xmlns:xlink="http://www.w3.org/1999/xlink" width="352" zoomAndPan="magnify" viewBox="0 0 264 157.5" height="210" preserveAspectRatio="xMidYMid meet" version="1.0"><defs><g/><clipPath id="f474f75629"><path d="M 19 26 L 134.242188 26 L 134.242188 157 L 19 157 Z M 19 26 " clip-rule="nonzero"/></clipPath><clipPath id="b4ff916379"><path d="M 0.417969 32 L 34 32 L 34 157 L 0.417969 157 Z M 0.417969 32 " clip-rule="nonzero"/></clipPath></defs><g clip-path="url(#f474f75629)"><path fill="#100f0d" d="M 134.171875 122.804688 C 126.589844 126.015625 118.972656 129.109375 111.347656 132.183594 L 99.890625 136.734375 C 97.980469 137.484375 96.085938 138.296875 94.125 138.890625 C 92.164062 139.5 90.199219 140.078125 88.253906 140.730469 L 41.46875 155.976562 L 38.316406 157 L 37.820312 153.714844 L 19.808594 34.207031 L 19.351562 31.179688 L 22.398438 30.972656 L 70.988281 27.679688 L 77.058594 27.257812 C 79.082031 27.082031 81.101562 26.867188 83.136719 26.921875 L 95.339844 26.933594 C 103.476562 26.953125 111.617188 27.042969 119.761719 27.203125 C 111.714844 28.457031 103.660156 29.644531 95.597656 30.761719 L 83.507812 32.421875 C 81.496094 32.746094 79.464844 32.808594 77.441406 32.90625 L 71.367188 33.308594 L 22.78125 36.601562 L 25.371094 33.363281 L 43.378906 152.871094 L 39.730469 150.609375 L 86.515625 135.367188 C 88.472656 134.75 90.402344 134.058594 92.34375 133.394531 C 94.28125 132.714844 96.289062 132.261719 98.273438 131.742188 L 110.210938 128.671875 C 118.179688 126.664062 126.15625 124.675781 134.171875 122.804688 " fill-opacity="1" fill-rule="nonzero"/></g><path fill="#100f0d" d="M 48.382812 53.226562 L 44.925781 30.300781 C 43.890625 23.414062 45.605469 16.632812 49.761719 11.207031 C 53.921875 5.769531 60.019531 2.351562 66.929688 1.578125 C 81.082031 -0.00390625 94.335938 10.195312 96.464844 24.3125 L 99.921875 47.238281 L 94.359375 48.082031 L 90.90625 25.15625 C 89.222656 13.996094 78.761719 5.929688 67.550781 7.183594 C 62.175781 7.785156 57.441406 10.433594 54.222656 14.640625 C 51.007812 18.839844 49.679688 24.101562 50.488281 29.457031 L 53.941406 52.382812 L 48.382812 53.226562 " fill-opacity="1" fill-rule="nonzero"/><path fill="#100f0d" d="M 89.878906 48.472656 C 90.480469 52.472656 94.222656 55.351562 98.230469 54.902344 C 102.242188 54.453125 105.003906 50.847656 104.402344 46.847656 C 103.800781 42.847656 100.058594 39.96875 96.046875 40.417969 C 92.039062 40.867188 89.277344 44.472656 89.878906 48.472656 " fill-opacity="1" fill-rule="nonzero"/><path fill="#100f0d" d="M 43.898438 53.617188 C 44.503906 57.617188 48.242188 60.492188 52.253906 60.046875 C 56.261719 59.597656 59.027344 55.992188 58.421875 51.992188 C 57.820312 47.992188 54.082031 45.113281 50.070312 45.5625 C 46.058594 46.011719 43.296875 49.617188 43.898438 53.617188 " fill-opacity="1" fill-rule="nonzero"/><g clip-path="url(#b4ff916379)"><path fill="#100f0d" d="M 14.660156 32.96875 C 14.90625 35.421875 15.105469 37.871094 15.261719 40.316406 C 15.453125 42.765625 15.558594 45.207031 15.683594 47.648438 C 15.726562 48.867188 15.851562 50.097656 15.828125 51.308594 C 15.804688 51.914062 15.679688 52.511719 15.605469 53.113281 C 15.523438 53.710938 15.476562 54.3125 15.417969 54.917969 L 14.738281 62.144531 L 12.019531 91.058594 L 6.578125 148.886719 L 2.382812 146.175781 C 2.855469 145.914062 3.164062 145.765625 3.546875 145.585938 C 3.914062 145.414062 4.277344 145.253906 4.644531 145.105469 C 5.375 144.800781 6.117188 144.535156 6.867188 144.296875 C 8.367188 143.832031 9.890625 143.433594 11.457031 143.152344 C 13.035156 142.925781 14.652344 143.066406 16.230469 143.253906 C 17.8125 143.460938 19.367188 143.828125 20.855469 144.347656 C 23.847656 145.378906 26.507812 147.113281 28.660156 149.210938 C 30.816406 151.308594 32.496094 153.757812 33.792969 156.328125 C 31.855469 154.195312 29.671875 152.351562 27.332031 150.9375 C 24.980469 149.539062 22.425781 148.675781 19.878906 148.347656 C 18.597656 148.191406 17.316406 148.171875 16.050781 148.273438 C 14.78125 148.351562 13.542969 148.667969 12.300781 148.863281 C 11.046875 149 9.792969 149.265625 8.578125 149.667969 C 7.96875 149.863281 7.367188 150.078125 6.78125 150.320312 C 6.488281 150.441406 6.199219 150.566406 5.921875 150.699219 C 5.65625 150.820312 5.328125 150.984375 5.175781 151.070312 L 0.480469 153.667969 L 0.980469 148.355469 L 6.421875 90.53125 L 9.140625 61.617188 L 9.820312 54.386719 C 9.875 53.785156 9.941406 53.183594 9.972656 52.578125 C 10.011719 51.972656 10 51.367188 10.089844 50.765625 C 10.292969 49.570312 10.644531 48.386719 10.914062 47.199219 C 11.492188 44.820312 12.054688 42.445312 12.695312 40.074219 C 13.308594 37.699219 13.957031 35.332031 14.660156 32.96875 " fill-opacity="1" fill-rule="nonzero"/></g><g fill="#100f0d" fill-opacity="1"><g transform="translate(48.043239, 95.685452)"><g><path d="M 4.578125 -2.84375 L 4.578125 -32.75 C 4.578125 -33.632812 4.878906 -34.375 5.484375 -34.96875 C 6.097656 -35.5625 6.847656 -35.859375 7.734375 -35.859375 C 8.609375 -35.859375 9.34375 -35.5625 9.9375 -34.96875 C 10.53125 -34.375 10.828125 -33.632812 10.828125 -32.75 L 10.828125 -20.796875 L 27.8125 -20.796875 L 27.8125 -32.75 C 27.8125 -33.632812 28.109375 -34.375 28.703125 -34.96875 C 29.296875 -35.5625 30.035156 -35.859375 30.921875 -35.859375 C 31.804688 -35.859375 32.550781 -35.5625 33.15625 -34.96875 C 33.769531 -34.375 34.078125 -33.632812 34.078125 -32.75 L 34.078125 -2.84375 C 34.078125 -1.96875 33.769531 -1.234375 33.15625 -0.640625 C 32.550781 -0.046875 31.804688 0.25 30.921875 0.25 C 30.035156 0.25 29.296875 -0.046875 28.703125 -0.640625 C 28.109375 -1.234375 27.8125 -1.96875 27.8125 -2.84375 L 27.8125 -15 L 10.828125 -15 L 10.828125 -2.84375 C 10.828125 -1.96875 10.53125 -1.234375 9.9375 -0.640625 C 9.34375 -0.046875 8.609375 0.25 7.734375 0.25 C 6.847656 0.25 6.097656 -0.046875 5.484375 -0.640625 C 4.878906 -1.234375 4.578125 -1.96875 4.578125 -2.84375 Z M 4.578125 -2.84375 "/></g></g></g><g fill="#100f0d" fill-opacity="1"><g transform="translate(81.40472, 95.685452)"><g><path d="M 5.03125 -27.15625 C 5.8125 -27.15625 6.4375 -26.941406 6.90625 -26.515625 C 7.382812 -26.097656 7.757812 -25.53125 8.03125 -24.8125 L 15.265625 -6.96875 L 21.96875 -24.8125 C 22.238281 -25.457031 22.601562 -26.007812 23.0625 -26.46875 C 23.519531 -26.925781 24.140625 -27.15625 24.921875 -27.15625 C 25.734375 -27.15625 26.425781 -26.875 27 -26.3125 C 27.582031 -25.757812 27.875 -25.078125 27.875 -24.265625 C 27.875 -23.722656 27.785156 -23.226562 27.609375 -22.78125 L 17.796875 0.765625 C 17.222656 2.148438 16.628906 3.316406 16.015625 4.265625 C 15.410156 5.222656 14.75 5.992188 14.03125 6.578125 C 13.320312 7.171875 12.535156 7.601562 11.671875 7.875 C 10.804688 8.15625 9.832031 8.296875 8.75 8.296875 C 7.863281 8.296875 7.085938 8.234375 6.421875 8.109375 C 5.765625 7.992188 5.113281 7.800781 4.46875 7.53125 C 4 7.351562 3.5625 7.070312 3.15625 6.6875 C 2.75 6.300781 2.546875 5.734375 2.546875 4.984375 C 2.546875 4.203125 2.789062 3.582031 3.28125 3.125 C 3.769531 2.664062 4.351562 2.4375 5.03125 2.4375 C 5.300781 2.4375 5.515625 2.453125 5.671875 2.484375 C 5.828125 2.523438 5.988281 2.578125 6.15625 2.640625 C 6.53125 2.742188 6.867188 2.828125 7.171875 2.890625 C 7.472656 2.960938 7.847656 3 8.296875 3 C 9.203125 3 9.9375 2.785156 10.5 2.359375 C 11.0625 1.941406 11.597656 1.207031 12.109375 0.15625 L 12.3125 -0.40625 L 2.34375 -22.6875 C 2.101562 -23.15625 1.984375 -23.644531 1.984375 -24.15625 C 1.984375 -25.039062 2.269531 -25.757812 2.84375 -26.3125 C 3.425781 -26.875 4.15625 -27.15625 5.03125 -27.15625 Z M 5.03125 -27.15625 "/></g></g></g><g fill="#100f0d" fill-opacity="1"><g transform="translate(105.967892, 95.685452)"><g><path d="M 2.078125 -7.828125 C 2.078125 -9.285156 2.347656 -10.554688 2.890625 -11.640625 C 3.441406 -12.734375 4.195312 -13.632812 5.15625 -14.34375 C 6.125 -15.050781 7.296875 -15.582031 8.671875 -15.9375 C 10.046875 -16.300781 11.546875 -16.484375 13.171875 -16.484375 C 14.703125 -16.484375 16.023438 -16.378906 17.140625 -16.171875 C 18.253906 -15.972656 19.335938 -15.703125 20.390625 -15.359375 L 20.390625 -16.015625 C 20.390625 -17.953125 19.820312 -19.410156 18.6875 -20.390625 C 17.550781 -21.378906 15.898438 -21.875 13.734375 -21.875 C 12.546875 -21.875 11.476562 -21.757812 10.53125 -21.53125 C 9.582031 -21.3125 8.664062 -21.066406 7.78125 -20.796875 C 7.4375 -20.703125 7.113281 -20.65625 6.8125 -20.65625 C 6.101562 -20.65625 5.492188 -20.898438 4.984375 -21.390625 C 4.472656 -21.878906 4.21875 -22.476562 4.21875 -23.1875 C 4.21875 -23.769531 4.378906 -24.28125 4.703125 -24.71875 C 5.023438 -25.15625 5.425781 -25.460938 5.90625 -25.640625 C 7.1875 -26.109375 8.503906 -26.484375 9.859375 -26.765625 C 11.222656 -27.054688 12.785156 -27.203125 14.546875 -27.203125 C 18.304688 -27.203125 21.210938 -26.285156 23.265625 -24.453125 C 25.316406 -22.628906 26.34375 -19.785156 26.34375 -15.921875 L 26.34375 -2.703125 C 26.34375 -1.847656 26.050781 -1.140625 25.46875 -0.578125 C 24.894531 -0.0234375 24.1875 0.25 23.34375 0.25 C 22.457031 0.25 21.734375 -0.0078125 21.171875 -0.53125 C 20.617188 -1.0625 20.34375 -1.664062 20.34375 -2.34375 L 20.34375 -3.359375 C 19.425781 -2.273438 18.253906 -1.347656 16.828125 -0.578125 C 15.410156 0.179688 13.664062 0.5625 11.59375 0.5625 C 10.34375 0.5625 9.140625 0.378906 7.984375 0.015625 C 6.828125 -0.335938 5.816406 -0.859375 4.953125 -1.546875 C 4.085938 -2.242188 3.390625 -3.109375 2.859375 -4.140625 C 2.335938 -5.179688 2.078125 -6.378906 2.078125 -7.734375 Z M 8.09375 -8.09375 L 8.09375 -7.984375 C 8.09375 -6.691406 8.582031 -5.691406 9.5625 -4.984375 C 10.539062 -4.273438 11.796875 -3.921875 13.328125 -3.921875 C 14.335938 -3.921875 15.285156 -4.054688 16.171875 -4.328125 C 17.054688 -4.597656 17.8125 -4.984375 18.4375 -5.484375 C 19.0625 -5.992188 19.5625 -6.601562 19.9375 -7.3125 C 20.3125 -8.03125 20.5 -8.8125 20.5 -9.65625 L 20.5 -11.5 C 19.71875 -11.800781 18.804688 -12.050781 17.765625 -12.25 C 16.734375 -12.457031 15.609375 -12.5625 14.390625 -12.5625 C 12.359375 -12.5625 10.800781 -12.171875 9.71875 -11.390625 C 8.632812 -10.609375 8.09375 -9.507812 8.09375 -8.09375 Z M 8.09375 -8.09375 "/></g></g></g><g fill="#100f0d" fill-opacity="1"><g transform="translate(130.531064, 95.685452)"><g><path d="M 3.859375 -2.796875 L 3.859375 -24.0625 C 3.859375 -24.9375 4.144531 -25.671875 4.71875 -26.265625 C 5.300781 -26.859375 6.035156 -27.15625 6.921875 -27.15625 C 7.796875 -27.15625 8.53125 -26.859375 9.125 -26.265625 C 9.71875 -25.671875 10.015625 -24.9375 10.015625 -24.0625 L 10.015625 -21.3125 C 10.734375 -23.039062 11.703125 -24.453125 12.921875 -25.546875 C 14.140625 -26.648438 15.425781 -27.203125 16.78125 -27.203125 C 17.769531 -27.203125 18.523438 -26.914062 19.046875 -26.34375 C 19.566406 -25.769531 19.828125 -25.039062 19.828125 -24.15625 C 19.828125 -23.34375 19.585938 -22.679688 19.109375 -22.171875 C 18.640625 -21.660156 18.066406 -21.335938 17.390625 -21.203125 C 15.148438 -20.796875 13.359375 -19.742188 12.015625 -18.046875 C 10.679688 -16.359375 10.015625 -13.921875 10.015625 -10.734375 L 10.015625 -2.796875 C 10.015625 -1.953125 9.71875 -1.234375 9.125 -0.640625 C 8.53125 -0.046875 7.796875 0.25 6.921875 0.25 C 6.066406 0.25 5.34375 -0.0351562 4.75 -0.609375 C 4.15625 -1.179688 3.859375 -1.910156 3.859375 -2.796875 Z M 3.859375 -2.796875 "/></g></g></g><g fill="#100f0d" fill-opacity="1"><g transform="translate(146.245052, 95.685452)"><g><path d="M 16.734375 -27.40625 C 18.796875 -27.40625 20.703125 -27.039062 22.453125 -26.3125 C 24.203125 -25.582031 25.710938 -24.582031 26.984375 -23.3125 C 28.253906 -22.039062 29.242188 -20.566406 29.953125 -18.890625 C 30.671875 -17.210938 31.03125 -15.410156 31.03125 -13.484375 L 31.03125 -13.375 C 31.03125 -11.476562 30.664062 -9.679688 29.9375 -7.984375 C 29.207031 -6.285156 28.203125 -4.800781 26.921875 -3.53125 C 25.648438 -2.257812 24.132812 -1.25 22.375 -0.5 C 20.613281 0.238281 18.695312 0.609375 16.625 0.609375 C 14.59375 0.609375 12.703125 0.242188 10.953125 -0.484375 C 9.210938 -1.210938 7.707031 -2.203125 6.4375 -3.453125 C 5.164062 -4.710938 4.171875 -6.1875 3.453125 -7.875 C 2.742188 -9.570312 2.390625 -11.375 2.390625 -13.28125 L 2.390625 -13.375 C 2.390625 -15.3125 2.753906 -17.125 3.484375 -18.8125 C 4.210938 -20.507812 5.210938 -21.992188 6.484375 -23.265625 C 7.753906 -24.535156 9.257812 -25.539062 11 -26.28125 C 12.75 -27.03125 14.660156 -27.40625 16.734375 -27.40625 Z M 16.734375 -4.78125 C 17.984375 -4.78125 19.109375 -5.007812 20.109375 -5.46875 C 21.109375 -5.925781 21.960938 -6.535156 22.671875 -7.296875 C 23.390625 -8.054688 23.9375 -8.953125 24.3125 -9.984375 C 24.6875 -11.023438 24.875 -12.125 24.875 -13.28125 L 24.875 -13.375 C 24.875 -14.5625 24.671875 -15.679688 24.265625 -16.734375 C 23.859375 -17.785156 23.289062 -18.703125 22.5625 -19.484375 C 21.832031 -20.265625 20.96875 -20.878906 19.96875 -21.328125 C 18.96875 -21.785156 17.851562 -22.015625 16.625 -22.015625 C 15.40625 -22.015625 14.296875 -21.785156 13.296875 -21.328125 C 12.296875 -20.878906 11.4375 -20.269531 10.71875 -19.5 C 10.007812 -18.738281 9.46875 -17.84375 9.09375 -16.8125 C 8.726562 -15.78125 8.546875 -14.671875 8.546875 -13.484375 L 8.546875 -13.375 C 8.546875 -12.21875 8.75 -11.113281 9.15625 -10.0625 C 9.5625 -9.019531 10.128906 -8.109375 10.859375 -7.328125 C 11.585938 -6.546875 12.453125 -5.925781 13.453125 -5.46875 C 14.453125 -5.007812 15.546875 -4.78125 16.734375 -4.78125 Z M 16.734375 -4.78125 "/></g></g></g><g fill="#100f0d" fill-opacity="1"><g transform="translate(174.368231, 95.685452)"><g><path d="M 16.734375 -27.40625 C 18.796875 -27.40625 20.703125 -27.039062 22.453125 -26.3125 C 24.203125 -25.582031 25.710938 -24.582031 26.984375 -23.3125 C 28.253906 -22.039062 29.242188 -20.566406 29.953125 -18.890625 C 30.671875 -17.210938 31.03125 -15.410156 31.03125 -13.484375 L 31.03125 -13.375 C 31.03125 -11.476562 30.664062 -9.679688 29.9375 -7.984375 C 29.207031 -6.285156 28.203125 -4.800781 26.921875 -3.53125 C 25.648438 -2.257812 24.132812 -1.25 22.375 -0.5 C 20.613281 0.238281 18.695312 0.609375 16.625 0.609375 C 14.59375 0.609375 12.703125 0.242188 10.953125 -0.484375 C 9.210938 -1.210938 7.707031 -2.203125 6.4375 -3.453125 C 5.164062 -4.710938 4.171875 -6.1875 3.453125 -7.875 C 2.742188 -9.570312 2.390625 -11.375 2.390625 -13.28125 L 2.390625 -13.375 C 2.390625 -15.3125 2.753906 -17.125 3.484375 -18.8125 C 4.210938 -20.507812 5.210938 -21.992188 6.484375 -23.265625 C 7.753906 -24.535156 9.257812 -25.539062 11 -26.28125 C 12.75 -27.03125 14.660156 -27.40625 16.734375 -27.40625 Z M 16.734375 -4.78125 C 17.984375 -4.78125 19.109375 -5.007812 20.109375 -5.46875 C 21.109375 -5.925781 21.960938 -6.535156 22.671875 -7.296875 C 23.390625 -8.054688 23.9375 -8.953125 24.3125 -9.984375 C 24.6875 -11.023438 24.875 -12.125 24.875 -13.28125 L 24.875 -13.375 C 24.875 -14.5625 24.671875 -15.679688 24.265625 -16.734375 C 23.859375 -17.785156 23.289062 -18.703125 22.5625 -19.484375 C 21.832031 -20.265625 20.96875 -20.878906 19.96875 -21.328125 C 18.96875 -21.785156 17.851562 -22.015625 16.625 -22.015625 C 15.40625 -22.015625 14.296875 -21.785156 13.296875 -21.328125 C 12.296875 -20.878906 11.4375 -20.269531 10.71875 -19.5 C 10.007812 -18.738281 9.46875 -17.84375 9.09375 -16.8125 C 8.726562 -15.78125 8.546875 -14.671875 8.546875 -13.484375 L 8.546875 -13.375 C 8.546875 -12.21875 8.75 -11.113281 9.15625 -10.0625 C 9.5625 -9.019531 10.128906 -8.109375 10.859375 -7.328125 C 11.585938 -6.546875 12.453125 -5.925781 13.453125 -5.46875 C 14.453125 -5.007812 15.546875 -4.78125 16.734375 -4.78125 Z M 16.734375 -4.78125 "/></g></g></g><g fill="#111b1e" fill-opacity="1"><g transform="translate(76.571499, 115.120832)"><g><path d="M 3.359375 0.109375 C 2.773438 0.109375 2.253906 -0.015625 1.796875 -0.265625 C 1.335938 -0.515625 0.976562 -0.859375 0.71875 -1.296875 C 0.46875 -1.742188 0.34375 -2.253906 0.34375 -2.828125 C 0.34375 -3.398438 0.46875 -3.90625 0.71875 -4.34375 C 0.976562 -4.789062 1.335938 -5.140625 1.796875 -5.390625 C 2.253906 -5.640625 2.773438 -5.765625 3.359375 -5.765625 C 3.953125 -5.765625 4.472656 -5.640625 4.921875 -5.390625 C 5.378906 -5.140625 5.734375 -4.789062 5.984375 -4.34375 C 6.242188 -3.90625 6.375 -3.398438 6.375 -2.828125 C 6.375 -2.253906 6.242188 -1.742188 5.984375 -1.296875 C 5.734375 -0.859375 5.378906 -0.515625 4.921875 -0.265625 C 4.472656 -0.015625 3.953125 0.109375 3.359375 0.109375 Z M 1.65625 -2.828125 C 1.65625 -2.484375 1.726562 -2.179688 1.875 -1.921875 C 2.019531 -1.671875 2.21875 -1.472656 2.46875 -1.328125 C 2.726562 -1.179688 3.023438 -1.109375 3.359375 -1.109375 C 3.703125 -1.109375 4 -1.179688 4.25 -1.328125 C 4.507812 -1.472656 4.707031 -1.671875 4.84375 -1.921875 C 4.988281 -2.179688 5.0625 -2.484375 5.0625 -2.828125 C 5.0625 -3.171875 4.988281 -3.46875 4.84375 -3.71875 C 4.707031 -3.976562 4.507812 -4.179688 4.25 -4.328125 C 4 -4.472656 3.703125 -4.546875 3.359375 -4.546875 C 3.023438 -4.546875 2.726562 -4.472656 2.46875 -4.328125 C 2.21875 -4.179688 2.019531 -3.976562 1.875 -3.71875 C 1.726562 -3.46875 1.65625 -3.171875 1.65625 -2.828125 Z M 1.65625 -2.828125 "/></g></g></g><g fill="#111b1e" fill-opacity="1"><g transform="translate(88.283633, 115.120832)"><g><path d="M 0.671875 0 L 0.671875 -5.65625 L 1.765625 -5.65625 L 4.265625 -2.21875 L 4.265625 -5.65625 L 5.546875 -5.65625 L 5.546875 0 L 4.453125 0 L 1.953125 -3.46875 L 1.953125 0 Z M 0.671875 0 "/></g></g></g><g fill="#111b1e" fill-opacity="1"><g transform="translate(99.486548, 115.120832)"><g><path d="M 0.671875 0 L 0.671875 -5.65625 L 1.96875 -5.65625 L 1.96875 -1.203125 L 4.4375 -1.203125 L 4.4375 0 Z M 0.671875 0 "/></g></g></g><g fill="#111b1e" fill-opacity="1"><g transform="translate(109.121373, 115.120832)"><g><path d="M 0.671875 0 L 0.671875 -5.65625 L 1.96875 -5.65625 L 1.96875 0 Z M 0.671875 0 "/></g></g></g><g fill="#111b1e" fill-opacity="1"><g transform="translate(116.743545, 115.120832)"><g><path d="M 0.671875 0 L 0.671875 -5.65625 L 1.765625 -5.65625 L 4.265625 -2.21875 L 4.265625 -5.65625 L 5.546875 -5.65625 L 5.546875 0 L 4.453125 0 L 1.953125 -3.46875 L 1.953125 0 Z M 0.671875 0 "/></g></g></g><g fill="#111b1e" fill-opacity="1"><g transform="translate(127.946459, 115.120832)"><g><path d="M 0.671875 0 L 0.671875 -5.65625 L 4.390625 -5.65625 L 4.390625 -4.578125 L 1.953125 -4.578125 L 1.953125 -3.40625 L 4.171875 -3.40625 L 4.171875 -2.328125 L 1.953125 -2.328125 L 1.953125 -1.09375 L 4.484375 -1.09375 L 4.484375 0 Z M 0.671875 0 "/></g></g></g><g fill="#111b1e" fill-opacity="1"><g transform="translate(137.823769, 115.120832)"><g/></g></g><g fill="#111b1e" fill-opacity="1"><g transform="translate(144.702313, 115.120832)"><g><path d="M 2.65625 0.109375 C 2.175781 0.109375 1.765625 0.03125 1.421875 -0.125 C 1.078125 -0.28125 0.8125 -0.5 0.625 -0.78125 C 0.445312 -1.070312 0.359375 -1.410156 0.359375 -1.796875 L 1.609375 -1.796875 C 1.609375 -1.523438 1.703125 -1.3125 1.890625 -1.15625 C 2.078125 -1.007812 2.328125 -0.9375 2.640625 -0.9375 C 2.910156 -0.9375 3.125 -0.988281 3.28125 -1.09375 C 3.4375 -1.207031 3.515625 -1.359375 3.515625 -1.546875 C 3.515625 -1.742188 3.421875 -1.90625 3.234375 -2.03125 C 3.046875 -2.15625 2.75 -2.257812 2.34375 -2.34375 C 1.6875 -2.476562 1.195312 -2.6875 0.875 -2.96875 C 0.5625 -3.257812 0.40625 -3.632812 0.40625 -4.09375 C 0.40625 -4.613281 0.59375 -5.019531 0.96875 -5.3125 C 1.34375 -5.613281 1.859375 -5.765625 2.515625 -5.765625 C 2.960938 -5.765625 3.347656 -5.6875 3.671875 -5.53125 C 4.003906 -5.382812 4.257812 -5.171875 4.4375 -4.890625 C 4.613281 -4.609375 4.703125 -4.28125 4.703125 -3.90625 L 3.46875 -3.90625 C 3.46875 -4.15625 3.382812 -4.351562 3.21875 -4.5 C 3.050781 -4.644531 2.820312 -4.71875 2.53125 -4.71875 C 2.257812 -4.71875 2.046875 -4.664062 1.890625 -4.5625 C 1.734375 -4.457031 1.65625 -4.3125 1.65625 -4.125 C 1.65625 -3.945312 1.738281 -3.796875 1.90625 -3.671875 C 2.082031 -3.554688 2.382812 -3.453125 2.8125 -3.359375 C 3.519531 -3.191406 4.03125 -2.96875 4.34375 -2.6875 C 4.65625 -2.40625 4.8125 -2.039062 4.8125 -1.59375 C 4.8125 -1.0625 4.617188 -0.644531 4.234375 -0.34375 C 3.847656 -0.0390625 3.320312 0.109375 2.65625 0.109375 Z M 2.65625 0.109375 "/></g></g></g><g fill="#111b1e" fill-opacity="1"><g transform="translate(154.862522, 115.120832)"><g><path d="M 2.03125 0 L 2.03125 -4.453125 L 0.25 -4.453125 L 0.25 -5.65625 L 5.109375 -5.65625 L 5.109375 -4.453125 L 3.3125 -4.453125 L 3.3125 0 Z M 2.03125 0 "/></g></g></g><g fill="#111b1e" fill-opacity="1"><g transform="translate(165.200565, 115.120832)"><g><path d="M 3.359375 0.109375 C 2.773438 0.109375 2.253906 -0.015625 1.796875 -0.265625 C 1.335938 -0.515625 0.976562 -0.859375 0.71875 -1.296875 C 0.46875 -1.742188 0.34375 -2.253906 0.34375 -2.828125 C 0.34375 -3.398438 0.46875 -3.90625 0.71875 -4.34375 C 0.976562 -4.789062 1.335938 -5.140625 1.796875 -5.390625 C 2.253906 -5.640625 2.773438 -5.765625 3.359375 -5.765625 C 3.953125 -5.765625 4.472656 -5.640625 4.921875 -5.390625 C 5.378906 -5.140625 5.734375 -4.789062 5.984375 -4.34375 C 6.242188 -3.90625 6.375 -3.398438 6.375 -2.828125 C 6.375 -2.253906 6.242188 -1.742188 5.984375 -1.296875 C 5.734375 -0.859375 5.378906 -0.515625 4.921875 -0.265625 C 4.472656 -0.015625 3.953125 0.109375 3.359375 0.109375 Z M 1.65625 -2.828125 C 1.65625 -2.484375 1.726562 -2.179688 1.875 -1.921875 C 2.019531 -1.671875 2.21875 -1.472656 2.46875 -1.328125 C 2.726562 -1.179688 3.023438 -1.109375 3.359375 -1.109375 C 3.703125 -1.109375 4 -1.179688 4.25 -1.328125 C 4.507812 -1.472656 4.707031 -1.671875 4.84375 -1.921875 C 4.988281 -2.179688 5.0625 -2.484375 5.0625 -2.828125 C 5.0625 -3.171875 4.988281 -3.46875 4.84375 -3.71875 C 4.707031 -3.976562 4.507812 -4.179688 4.25 -4.328125 C 4 -4.472656 3.703125 -4.546875 3.359375 -4.546875 C 3.023438 -4.546875 2.726562 -4.472656 2.46875 -4.328125 C 2.21875 -4.179688 2.019531 -3.976562 1.875 -3.71875 C 1.726562 -3.46875 1.65625 -3.171875 1.65625 -2.828125 Z M 1.65625 -2.828125 "/></g></g></g><g fill="#111b1e" fill-opacity="1"><g transform="translate(176.912698, 115.120832)"><g><path d="M 0.671875 0 L 0.671875 -5.65625 L 3.09375 -5.65625 C 3.519531 -5.65625 3.890625 -5.578125 4.203125 -5.421875 C 4.523438 -5.265625 4.769531 -5.039062 4.9375 -4.75 C 5.113281 -4.457031 5.203125 -4.109375 5.203125 -3.703125 C 5.203125 -3.285156 5.109375 -2.925781 4.921875 -2.625 C 4.734375 -2.332031 4.472656 -2.113281 4.140625 -1.96875 L 5.3125 0 L 3.828125 0 L 2.8125 -1.765625 L 1.96875 -1.765625 L 1.96875 0 Z M 1.953125 -2.84375 L 2.921875 -2.84375 C 3.242188 -2.84375 3.488281 -2.914062 3.65625 -3.0625 C 3.820312 -3.207031 3.90625 -3.421875 3.90625 -3.703125 C 3.90625 -3.972656 3.820312 -4.179688 3.65625 -4.328125 C 3.488281 -4.484375 3.242188 -4.5625 2.921875 -4.5625 L 1.953125 -4.5625 Z M 1.953125 -2.84375 "/></g></g></g><g fill="#111b1e" fill-opacity="1"><g transform="translate(187.582137, 115.120832)"><g><path d="M 0.671875 0 L 0.671875 -5.65625 L 4.390625 -5.65625 L 4.390625 -4.578125 L 1.953125 -4.578125 L 1.953125 -3.40625 L 4.171875 -3.40625 L 4.171875 -2.328125 L 1.953125 -2.328125 L 1.953125 -1.09375 L 4.484375 -1.09375 L 4.484375 0 Z M 0.671875 0 "/></g></g></g></svg>